<?xml version="1.0" encoding="utf-8"?>
<svg version="1.1" id="layer" xmlns="http://www.w3.org/2000/svg" xmlns:xlink="http://www.w3.org/1999/xlink" x="0px" y="0px"
	 viewBox="0 0 652 652" style="enable-background:new 0 0 652 652;" xml:space="preserve">
<style type="text/css">
	.st0{fill:#002F34;}
	.st1{fill:#23E5DB;}
</style>
<rect class="st0" width="652" height="652"/>
<path class="st1" d="M426,153.6v342.9h-85.7V153.6H426z M168.9,182.1c78.9,0,142.9,64,142.9,142.9s-64,142.9-142.9,142.9
	S26,403.9,26,325S90,182.1,168.9,182.1z M515.2,239.3l25.1,25.1l25.1-25.1H626v60.6L600.9,325l25.1,25.1v60.6h-60.6l-25.1-25.1
	l-25.1,25.1h-60.6v-60.6l25.1-25.1l-25.1-25.1v-60.6L515.2,239.3L515.2,239.3z M168.9,267.9c-31.5,0-57.1,25.6-57.1,57.1
	s25.6,57.1,57.1,57.1S226,356.5,226,325S200.4,267.9,168.9,267.9z"/>
</svg>
